<?xml version="1.0" standalone="no"?>
<!DOCTYPE svg PUBLIC "-//W3C//DTD SVG 20010904//EN"
 "http://www.w3.org/TR/2001/REC-SVG-20010904/DTD/svg10.dtd">
<svg version="1.0" xmlns="http://www.w3.org/2000/svg"
 width="260.000000pt" height="260.000000pt" viewBox="0 0 260.000000 260.000000"
 preserveAspectRatio="xMidYMid meet">
<metadata>
Created by potrace 1.14, written by Peter Selinger 2001-2017
</metadata>
<g transform="translate(0.000000,260.000000) scale(0.100000,-0.100000)"
fill="#000000" stroke="none">
<path d="M1558 1855 c-85 -21 -148 -57 -199 -112 -62 -66 -83 -130 -77 -237 9
-158 84 -245 304 -352 204 -100 246 -138 259 -233 11 -89 -31 -167 -113 -208
-46 -23 -61 -25 -130 -21 -132 8 -194 56 -264 205 -56 120 -68 113 -68 -42 l0
-125 40 -20 c116 -59 369 -83 495 -46 120 36 197 93 243 180 24 46 27 61 27
156 0 95 -3 110 -27 156 -46 88 -138 155 -323 235 -166 73 -237 161 -220 275
17 115 139 185 268 155 77 -17 110 -49 169 -161 29 -55 58 -100 64 -100 15 0
24 56 24 147 0 84 -4 88 -118 131 -85 31 -264 40 -354 17z"/>
<path d="M720 1826 c0 -8 13 -19 29 -24 59 -21 59 -24 72 -432 11 -371 7 -578
-13 -629 l-10 -26 -21 27 c-12 15 -34 44 -49 66 -72 107 -248 82 -248 -36 0
-123 181 -168 354 -89 107 49 165 122 209 263 36 115 47 237 47 537 0 248 1
266 20 290 11 13 31 28 45 31 14 4 25 13 25 21 0 13 -34 15 -230 15 -191 0
-230 -2 -230 -14z"/>
</g>
</svg>
